# xmcd
#
# Track frame offsets: 
#        182
#        13160
#        25042
#        37282
#        48372
#        61020
#        76057
#        89950
#        102365
#        116080
#        128700
#        142345
#        155010
#        167425
#        182047
#        195347
#        213452
#        228082
#        249100
#        262610
#        275797
#        291045
#        305545
#
# Disc length: 4245 seconds
#
# Revision: 3
# Processed by: cddbd v1.5.2PL0 Copyright (c) Steve Scherf et al.
# Submitted via: ExactAudioCopy v0.99pb5
#
DISCID=40109317
DTITLE=Percy Sledge - It Tears Me Up: The Best Of Percy Sledge
DYEAR=1992
DGENRE=Soul
TTITLE0=When A Man Loves A Woman
TTITLE1=I'm Hanging Up My Heart
TTITLE2=Put A Little Lovin' On Me
TTITLE3=Love Me Like You Mean It
TTITLE4=It Tears Me Up
TTITLE5=Warm and Tender Love
TTITLE6=Love Me Tender
TTITLE7=The Dark End Of The Street
TTITLE8=Take Time To Know Her
TTITLE9=Try A Little Tenderness
TTITLE10=Bless Your Sweet Little Soul
TTITLE11=True Love Travels On A Gravel Road
TTITLE12=Sudden Stop
TTITLE13=Stop The World Tonight
TTITLE14=It's All Wrong But It's Alright
TTITLE15=Drown In My Own Tears
TTITLE16=Out Of Left Field
TTITLE17=Kind Woman
TTITLE18=Cover Me
TTITLE19=That's The Way I Want To Live My Life
TTITLE20=Push Mr. Pride Aside
TTITLE21=It Can't Be Stopped
TTITLE22=Rainbow Road
EXTD=
EXTT0=
EXTT1=
EXTT2=
EXTT3=
EXTT4=
EXTT5=
EXTT6=
EXTT7=
EXTT8=
EXTT9=
EXTT10=
EXTT11=
EXTT12=
EXTT13=
EXTT14=
EXTT15=
EXTT16=
EXTT17=
EXTT18=
EXTT19=
EXTT20=
EXTT21=
EXTT22=
PLAYORDER=
